<svg width="28" height="28" viewBox="0 0 28 28" fill="none" xmlns="http://www.w3.org/2000/svg">
<path fill-rule="evenodd" clip-rule="evenodd" d="M19.9 22.6001C18.1 23.8001 16 24.5001 13.7 24.5001C11.4 24.5001 9.2 23.8001 7.5 22.6001L5.5 24.6001C7.8 26.3001 10.6 27.3001 13.7 27.3001C16.8 27.3001 19.6 26.3001 21.9 24.6001L19.9 22.6001Z" fill="#00405A"/>
<path fill-rule="evenodd" clip-rule="evenodd" d="M4.7 19.7999C3.5 17.9999 2.8 15.8999 2.8 13.5999C2.8 11.2999 3.5 9.1999 4.7 7.3999L2.7 5.3999C1 7.6999 0 10.5999 0 13.5999C0 16.6999 1 19.4999 2.7 21.7999L4.7 19.7999Z" fill="#00405A"/>
<path fill-rule="evenodd" clip-rule="evenodd" d="M19.3 1.2C17.6 0.4 15.6 0 13.7 0C10.6 0 7.8 1 5.5 2.7L7.5 4.7C9.3 3.5 11.4 2.7 13.8 2.7C14.7 2.7 15.6 2.9 16.5 3.1L19.3 1.2Z" fill="#00405A"/>
<path fill-rule="evenodd" clip-rule="evenodd" d="M26.1996 8L24.1996 10.8C24.4996 11.7 24.5996 12.7 24.5996 13.6C24.5996 15.9 23.8996 18.1 22.5996 19.9L24.5996 21.9C26.2996 19.6 27.3996 16.8 27.3996 13.7C27.3996 11.7 26.9996 9.8 26.1996 8Z" fill="#00405A"/>
<path fill-rule="evenodd" clip-rule="evenodd" d="M4.09961 16.3999L25.9996 1.3999L10.9996 23.1999L11.6996 15.5999L4.09961 16.3999Z" fill="#008ED3"/>
</svg>
